<svg width="170" height="106" viewBox="0 0 170 106" fill="none" xmlns="http://www.w3.org/2000/svg">
<g filter="url(#filter0_d_1530_2919)">
<path d="M4.04414 -6.67572e-06H14.2641C19.3975 -6.67572e-06 23.5041 0.699993 26.5841 2.09999C29.6641 3.5 32.3241 5.74 34.5641 8.82C36.8041 11.8067 39.4175 16.3333 42.4041 22.4L50.5241 38.78L58.6441 22.4C61.6308 16.3333 64.2441 11.8067 66.4841 8.82C68.7241 5.74 71.3841 3.5 74.4641 2.09999C77.5441 0.699993 81.6508 -6.67572e-06 86.7842 -6.67572e-06H97.0041V98H79.0841V20.58C77.9641 20.58 77.0308 21.0933 76.2841 22.12C75.5375 23.1467 74.4175 24.9667 72.9241 27.58L50.5241 69.16L28.1241 27.58C26.6308 24.9667 25.5108 23.1467 24.7641 22.12C24.0175 21.0933 23.0841 20.5333 21.9641 20.44V98H4.04414V-6.67572e-06ZM130.462 38.92C134.569 39.9467 137.975 41.58 140.682 43.82C143.389 45.9667 145.722 48.8133 147.682 52.36C149.642 55.8133 151.695 60.5733 153.842 66.64L165.042 98H145.162L134.522 68.6C133.215 64.96 132.002 62.2067 130.882 60.34C129.855 58.38 128.362 56.7467 126.402 55.44C124.442 54.1333 121.689 53.2 118.142 52.64L102.742 69.72V98H83.002V-6.67572e-06H102.742V44.94L142.362 -6.67572e-06H165.602L130.462 38.92Z" fill="#ffffff"/>
</g>
<defs>
<filter id="filter0_d_1530_2919" x="0.0439453" y="0" width="169.558" height="106" filterUnits="userSpaceOnUse" color-interpolation-filters="sRGB">
<feFlood flood-opacity="0" result="BackgroundImageFix"/>
<feColorMatrix in="SourceAlpha" type="matrix" values="0 0 0 0 0 0 0 0 0 0 0 0 0 0 0 0 0 0 127 0" result="hardAlpha"/>
<feOffset dy="4"/>
<feGaussianBlur stdDeviation="2"/>
<feComposite in2="hardAlpha" operator="out"/>
<feColorMatrix type="matrix" values="0 0 0 0 0 0 0 0 0 0 0 0 0 0 0 0 0 0 0.36 0"/>
<feBlend mode="normal" in2="BackgroundImageFix" result="effect1_dropShadow_1530_2919"/>
<feBlend mode="normal" in="SourceGraphic" in2="effect1_dropShadow_1530_2919" result="shape"/>
</filter>
</defs>
</svg>
