<?xml version="1.0" encoding="UTF-8"?>
<!DOCTYPE svg PUBLIC "-//W3C//DTD SVG 1.1//EN" "http://www.w3.org/Graphics/SVG/1.1/DTD/svg11.dtd">
<!-- Creator: CorelDRAW -->
<svg xmlns="http://www.w3.org/2000/svg" xml:space="preserve" width="9.5cm" height="2cm" version="1.1" shape-rendering="geometricPrecision" text-rendering="geometricPrecision" image-rendering="optimizeQuality" fill-rule="evenodd" clip-rule="evenodd"
viewBox="0 0 95000 20000"
 xmlns:xlink="http://www.w3.org/1999/xlink"
 xmlns:xodm="http://www.corel.com/coreldraw/odm/2003">
 <g id="Layer_x0020_1">
  <metadata id="CorelCorpID_0Corel-Layer"/>
  <polygon fill="#000066" fill-rule="nonzero" points="22068.7,2510.7 23517.1,2510.7 25344.3,7985.2 27180.7,2510.7 28625.4,2510.7 29940.7,10359 28499.7,10359 27661.7,5401.9 26000.2,10359 24681.2,10359 23027,5401.9 22172.6,10359 20715.1,10359 "/>
  <path id="_1" fill="#000066" fill-rule="nonzero" d="M38559.7 2313.9l0 2882.1c262.3,-260.5 546.5,-457.3 852.6,-588.4 306,-129.4 633.9,-195 981.9,-195 756.1,0 1399.2,286.1 1929.3,856.3 530.1,572 794.3,1304.4 794.3,2198.9 0,861.7 -273.3,1583.1 -821.6,2162.5 -546.6,581.1 -1195.1,870.8 -1945.7,870.8 -333.4,0 -644.9,-60.1 -932.8,-178.5 -287.8,-118.5 -573.8,-311.6 -858,-581.2l0 617.6 -1453.8 0 0 -8045.1 1453.8 0zm1526.6 3432.3c-457.2,0 -838,156.7 -1138.6,468.2 -302.4,313.4 -453.6,721.4 -453.6,1226.1 0,515.5 151.2,932.7 453.6,1249.7 300.6,318.8 681.4,477.3 1138.6,477.3 444.5,0 818,-162.1 1122.3,-484.6 304.2,-324.2 455.4,-736 455.4,-1237 0,-497.3 -149.4,-905.4 -448.2,-1222.4 -296.9,-318.8 -674,-477.3 -1129.5,-477.3z"/>
  <path id="_2" fill="#000066" fill-rule="nonzero" d="M44899.5 2171.8c255,0 473.6,92.9 655.8,276.9 184,184 275.1,406.3 275.1,668.6 0,258.7 -91.1,479.2 -271.4,661.4 -180.4,182.1 -397.2,273.2 -650.4,273.2 -258.7,0 -479.2,-92.9 -661.3,-278.7 -184,-185.8 -275.1,-411.7 -275.1,-677.7 0,-255.1 91.1,-471.9 271.4,-652.2 180.4,-180.4 399,-271.5 655.9,-271.5zm-730.6 2382.9l1453.8 0 0 5804.3 -1453.8 0 0 -5804.3z"/>
  <polygon id="_3" fill="#000066" fill-rule="nonzero" points="49399.3,2510.7 53738.8,2510.7 53738.8,3986.3 52306.9,3986.3 52306.9,10359 50787.5,10359 50787.5,3986.3 49399.3,3986.3 "/>
  <path id="_4" fill="#000066" fill-rule="nonzero" d="M60401.1 7866.8l-4672.9 0c67.4,413.5 247.7,743.3 539.2,989.2 291.5,244.1 665,366.2 1116.8,366.2 542.9,0 1007.4,-191.3 1397.3,-573.9l1220.6 577.5c-304.2,433.6 -670.4,754.3 -1094.9,963.8 -426.3,207.7 -930.9,311.5 -1515.7,311.5 -907.3,0 -1646.9,-286 -2217.2,-859.9 -570.2,-572 -856.2,-1289.8 -856.2,-2151.5 0,-883.6 286,-1617.8 856.2,-2200.8 570.3,-584.8 1284.4,-876.3 2146.1,-876.3 912.7,0 1656,291.5 2228.1,872.7 572,583 858,1349.9 858,2306.4l-5.4 275.1zm-1448.3 -1136.8c-96.6,-317 -286.1,-575.7 -568.4,-774.3 -284.2,-198.6 -612.2,-296.9 -987.5,-296.9 -406.2,0 -761.5,111.1 -1069.4,335.2 -191.2,138.4 -369.8,384.4 -533.7,736l3159 0z"/>
  <path id="_5" fill="#000066" fill-rule="nonzero" d="M67272.9 5735.3l-1211.5 666.8c-227.7,-238.7 -451.8,-402.7 -674.1,-495.6 -222.2,-92.9 -482.8,-138.4 -781.5,-138.4 -544.8,0 -985.6,162.1 -1320.8,484.6 -337.1,324.2 -504.7,737.8 -504.7,1244.3 0,491.8 162.2,892.6 484.6,1204.2 324.3,311.5 748.8,466.3 1275.3,466.3 650.4,0 1156.8,-222.2 1521.2,-666.7l1145.9 787c-623.1,808.9 -1501.2,1213.3 -2636.1,1213.3 -1022.1,0 -1821.8,-302.4 -2399.4,-905.4 -577.5,-603.1 -867.1,-1308.1 -867.1,-2117 0,-561.1 140.2,-1076.6 420.8,-1548.5 282.4,-471.8 674.1,-843.5 1178.7,-1113.1 502.8,-269.6 1065.8,-404.5 1688.8,-404.5 577.5,0 1094.9,114.8 1554,344.4 459.1,229.5 834.4,555.6 1125.9,978.3z"/>
  <path id="_6" fill="#000066" fill-rule="nonzero" d="M68597.3 2313.9l1453.8 0 0 2834.8c284.2,-246 568.4,-430 856.2,-552.1 286.1,-122 577.5,-184 870.9,-184 573.8,0 1058.4,198.6 1451.9,597.6 337.1,344.3 504.7,850.8 504.7,1517.6l0 3831.2 -1432 0 0 -2541.4c0,-670.4 -30.9,-1125.9 -94.7,-1362.7 -63.8,-238.7 -173.1,-415.4 -327.9,-533.8 -153.1,-116.6 -344.3,-174.9 -570.2,-174.9 -293.4,0 -546.6,98.4 -757.9,293.3 -209.5,194.9 -355.3,460.9 -437.2,798 -41.9,174.9 -63.8,572 -63.8,1193.2l0 2328.3 -1453.8 0 0 -8045.1z"/>
  <polygon id="_7" fill="#000066" fill-rule="nonzero" points="78358.5,2510.7 79845.1,2510.7 79845.1,8938 82042.2,8938 82042.2,10359 78358.5,10359 "/>
  <polygon id="_8" fill="#000066" fill-rule="nonzero" points="83168.1,2510.7 84654.7,2510.7 84654.7,8938 86851.8,8938 86851.8,10359 83168.1,10359 "/>
  <path id="_9" fill="#000066" fill-rule="nonzero" d="M87977.7 2510.7l1586.8 0c858.1,0 1475.6,78.3 1854.6,236.8 378.9,158.5 679.5,415.4 898.1,768.8 218.6,353.4 327.9,777.9 327.9,1273.5 0,548.3 -143.9,1003.8 -431.7,1366.3 -286,362.5 -675.9,615.8 -1169.6,757.9 -289.7,82 -816.2,122 -1579.5,122l0 3323 -1486.6 0 0 -7848.3zm1486.6 3071.5l479.1 0c377.1,0 637.6,-27.3 785.2,-80.1 147.6,-54.7 262.4,-142.1 348,-266 83.8,-123.9 125.7,-273.3 125.7,-450 0,-304.2 -118.4,-526.5 -355.3,-664.9 -171.2,-103.9 -491.9,-156.7 -958.2,-156.7l-424.5 0 0 1617.7z"/>
  <circle fill="#84E3FF" stroke="#84E3FF" stroke-width="176.4" stroke-miterlimit="2.61313" cx="9654" cy="4346.1" r="1828.3"/>
  <circle fill="#E61AC7" stroke="#E61AC7" stroke-width="176.4" stroke-miterlimit="2.61313" cx="15226.6" cy="15491.2" r="1828.3"/>
  <circle fill="#FFF200" stroke="#FFF200" stroke-width="176.4" stroke-miterlimit="2.61313" cx="9654" cy="15491.2" r="1828.3"/>
  <circle fill="#A447B8" stroke="#A447B8" stroke-width="176.4" stroke-miterlimit="2.61313" cx="4081.4" cy="15491.2" r="1828.3"/>
  <ellipse fill="#FF7F27" stroke="#FF7F27" stroke-width="176.4" stroke-miterlimit="2.61313" cx="15226.6" cy="9918.7" rx="1828.3" ry="1827.9"/>
  <ellipse fill="#22B14C" stroke="#22B14C" stroke-width="176.4" stroke-miterlimit="2.61313" cx="4081.4" cy="9918.7" rx="1828.3" ry="1827.9"/>
  <ellipse fill="#E61AC7" stroke="#E61AC7" stroke-width="176.4" stroke-miterlimit="2.61313" cx="9654" cy="9918.7" rx="1828.3" ry="1827.9"/>
  <ellipse fill="#FF7F27" stroke="#FF7F27" stroke-width="176.4" stroke-miterlimit="2.61313" cx="4081.4" cy="4346.2" rx="1828.3" ry="1828.2"/>
  <circle fill="#22B14C" stroke="#22B14C" stroke-width="176.4" stroke-miterlimit="2.61313" cx="15226.6" cy="4346.1" r="1828.3"/>
  <path fill="#FF7F27" fill-rule="nonzero" d="M21182.2 16406.2l0 -3270.2 516.2 0c299.9,0 518.5,19 657.4,57.7 196.6,52.4 353,148.8 469.1,289.2 116.2,141.2 174.6,307.4 174.6,498.7 0,124.5 -26.6,237.6 -78.9,339.4 -52.4,101.7 -138.2,197.3 -256.6,286.1 198.1,93.4 343.1,209.5 435,350 91.8,139.7 137.3,305.1 137.3,496.4 0,183.7 -47.8,350.7 -142.7,501.8 -95.6,151.1 -218.6,264.2 -368.9,338.6 -150.3,75.1 -357.5,112.3 -622.4,112.3l-920.1 0zm619.4 -2678.1l0 692.3 139 0c154.8,0 270.2,-31.9 345.4,-96.4 75.1,-63.8 112.3,-151.1 112.3,-261.1 0,-102.5 -35.7,-183.7 -107,-244.5 -71.4,-59.9 -179.9,-90.3 -325.7,-90.3l-164 0zm0 1248l0 838 157.9 0c261.9,0 438.8,-32.6 529.9,-97.9 91.1,-65.3 136.6,-160.2 136.6,-284.7 0,-140.4 -53.1,-252 -160.1,-333.2 -107.1,-81.3 -284.7,-122.2 -532.9,-122.2l-131.4 0z"/>
  <path id="_1_0" fill="#FF7F27" fill-rule="nonzero" d="M23760.2 13987.7l614.8 0 0 1162.9c0,226.3 16,383.4 47.1,471.4 31.1,88.1 81.2,156.4 150.3,205.8 69.1,48.5 154.9,72.8 255.8,72.8 101,0 187.5,-24.3 258.1,-72.1 70.6,-47.8 123,-118.4 157.1,-211.8 25.1,-69.8 38,-218.6 38,-446.3l0 -1182.7 605.8 0 0 1023.3c0,422 -33.4,710.5 -100.2,866.1 -81.3,189.8 -202,334.8 -360.6,436.5 -158.7,101 -360.6,151.8 -605,151.8 -265.7,0 -479.8,-59.2 -643.7,-177.6 -164,-118.4 -279.4,-283.2 -346.2,-495 -47.8,-146.5 -71.3,-412.9 -71.3,-799.3l0 -1005.8z"/>
  <polygon id="_2_1" fill="#FF7F27" fill-rule="nonzero" points="26223.4,13987.7 26845.9,13987.7 27472.1,15502.1 28166,13987.7 28786.9,13987.7 27274,17289.8 26653.1,17289.8 27145,16227.8 "/>
  <path id="_3_2" fill="#FF7F27" fill-rule="nonzero" d="M30519.2 13136l661.1 0c361.4,0 619.5,31.9 772.8,96.4 154.1,64.5 277.1,172.3 370.4,321.9 93.4,149.5 140.5,326.4 140.5,531.3 0,214.9 -51.6,394.8 -154.1,539 -103.3,145 -258.1,254.3 -465.3,327.9l772 1453.7 -680.2 0 -734.8 -1384.6 -63 0 0 1384.6 -619.4 0 0 -3270.2zm619.4 1279.8l197.4 0c200.4,0 337.8,-25.8 413.7,-78.1 75.1,-52.4 113.1,-139 113.1,-260.4 0,-71.4 -19,-133.6 -56.2,-186.8 -37.2,-53.1 -87.3,-91 -150.3,-113.8 -62.2,-23.6 -177.6,-34.9 -345.4,-34.9l-172.3 0 0 674z"/>
  <path id="_4_3" fill="#FF7F27" fill-rule="nonzero" d="M35472.3 15367.8l-1947.1 0c28.1,172.3 103.3,309.7 224.7,412.1 121.5,101.8 277.1,152.6 465.4,152.6 226.2,0 419.7,-79.7 582.2,-239.1l508.6 240.6c-126.8,180.7 -279.4,314.3 -456.2,401.6 -177.7,86.5 -387.9,129.8 -631.6,129.8 -378,0 -686.2,-119.2 -923.8,-358.3 -237.6,-238.3 -356.8,-537.4 -356.8,-896.5 0,-368.1 119.2,-674.1 356.8,-917 237.6,-243.6 535.1,-365.1 894.2,-365.1 380.3,0 690,121.5 928.4,363.6 238.3,242.9 357.5,562.5 357.5,961l-2.3 114.7zm-603.5 -473.7c-40.2,-132.1 -119.1,-239.9 -236.8,-322.6 -118.4,-82.8 -255.1,-123.8 -411.4,-123.8 -169.3,0 -317.3,46.3 -445.6,139.7 -79.7,57.7 -154.1,160.2 -222.4,306.7l1316.2 0z"/>
  <path id="_5_4" fill="#FF7F27" fill-rule="nonzero" d="M35680.3 13987.7l214.1 0c1.5,-316.5 6.8,-503.3 15.2,-561 16.7,-132.8 72.1,-238.3 167,-315.8 95.6,-77.4 230,-116.1 403.8,-116.1 126,0 267.2,28.9 425.1,86.5l0 461.6c-87.3,-25.1 -158.6,-38 -214.8,-38 -70.6,0 -122.2,14.4 -154.9,44 -23.5,22.1 -35.7,68.4 -35.7,137.4l-2.2 301.4 384.8 0 0 514.7 -382.6 0 0 1903.8 -605.7 0 0 -1903.8 -214.1 0 0 -514.7z"/>
  <path id="_6_5" fill="#FF7F27" fill-rule="nonzero" d="M37241.8 13987.7l614.8 0 0 1162.9c0,226.3 16,383.4 47.1,471.4 31.1,88.1 81.2,156.4 150.3,205.8 69.1,48.5 154.9,72.8 255.8,72.8 101,0 187.5,-24.3 258.1,-72.1 70.6,-47.8 123,-118.4 157.1,-211.8 25.1,-69.8 38,-218.6 38,-446.3l0 -1182.7 605.8 0 0 1023.3c0,422 -33.4,710.5 -100.2,866.1 -81.3,189.8 -202,334.8 -360.6,436.5 -158.7,101 -360.6,151.8 -605,151.8 -265.7,0 -479.8,-59.2 -643.7,-177.6 -164,-118.4 -279.4,-283.2 -346.2,-495 -47.8,-146.5 -71.3,-412.9 -71.3,-799.3l0 -1005.8z"/>
  <path id="_7_6" fill="#FF7F27" fill-rule="nonzero" d="M39834.1 13987.7l523.7 0 0 307.4c56.2,-119.9 130.6,-211 223.2,-273.2 93.4,-62.3 195.1,-93.4 305.2,-93.4 78.2,0 160.1,20.5 245.9,62.2l-188.2 523.8c-70.6,-35.7 -129.1,-53.1 -174.6,-53.1 -92.6,0 -171.6,57.7 -235.3,173.1 -64.6,115.3 -96.4,341.6 -96.4,678.6l2.2 117.7 0 975.4 -605.7 0 0 -2418.5z"/>
  <path id="_8_7" fill="#FF7F27" fill-rule="nonzero" d="M42037.7 13054l0 1200.9c109.3,-108.5 227.7,-190.5 355.3,-245.2 127.5,-53.9 264.1,-81.2 409.1,-81.2 315.1,0 583,119.2 803.9,356.8 220.9,238.3 331,543.5 331,916.2 0,359.1 -113.9,659.7 -342.4,901.1 -227.7,242.1 -497.9,362.8 -810.7,362.8 -138.9,0 -268.7,-25 -388.6,-74.4 -120,-49.3 -239.2,-129.8 -357.6,-242.1l0 257.3 -605.7 0 0 -3352.2 605.7 0zm636.1 1430.2c-190.5,0 -349.1,65.2 -474.4,195 -126,130.6 -189,300.7 -189,510.9 0,214.8 63,388.7 189,520.8 125.3,132.8 283.9,198.8 474.4,198.8 185.3,0 340.9,-67.5 467.7,-201.9 126.7,-135.1 189.7,-306.6 189.7,-515.4 0,-207.2 -62.2,-377.3 -186.7,-509.4 -123.7,-132.8 -280.9,-198.8 -470.7,-198.8z"/>
  <path id="_9_8" fill="#FF7F27" fill-rule="nonzero" d="M44679.4 12994.8c106.3,0 197.4,38.7 273.3,115.4 76.6,76.7 114.6,169.3 114.6,278.6 0,107.8 -38,199.6 -113.1,275.5 -75.2,75.9 -165.5,113.9 -271,113.9 -107.8,0 -199.7,-38.7 -275.6,-116.1 -76.6,-77.5 -114.6,-171.6 -114.6,-282.4 0,-106.3 38,-196.6 113.1,-271.8 75.2,-75.1 166.3,-113.1 273.3,-113.1zm-304.4 992.9l605.8 0 0 2418.5 -605.8 0 0 -2418.5z"/>
  <path id="_10" fill="#FF7F27" fill-rule="nonzero" d="M47010.6 14330.1l-375 377.2c-151.8,-151.8 -290,-227.7 -414.5,-227.7 -67.5,0 -120.7,14.4 -159.4,43.3 -38.7,28.8 -57.7,64.5 -57.7,107 0,32.6 12.2,62.3 36.5,89.6 24.3,27.3 85,64.5 181.4,112.3l221.7 110.9c233.8,114.6 394.7,232.2 482,351.4 87.3,120 130.5,259.6 130.5,420.6 0,214 -78.9,393.2 -236.8,535.9 -157.9,143.5 -369.7,214.8 -635.4,214.8 -352.2,0 -634.6,-137.4 -844.8,-412.9l374.2 -406.9c71.4,82.7 154.9,150.3 251.3,201.1 95.6,50.9 180.6,76.7 255,76.7 79.7,0 145,-19 193.6,-57.7 49.3,-38.7 73.6,-82.7 73.6,-132.8 0,-93.4 -88,-184.5 -264.9,-272.5l-204.2 -102.5c-391.7,-196.6 -587.5,-442.6 -587.5,-737.9 0,-190.5 73.6,-353.7 220.9,-488.8 147.2,-135.1 335.5,-202.7 564.7,-202.7 157.2,0 304.4,34.9 443.3,104 138.2,69.1 255.1,168.5 351.5,297.6z"/>
  <path id="_11" fill="#FF7F27" fill-rule="nonzero" d="M47538.9 13054l605.8 0 0 1181.2c118.4,-102.5 236.8,-179.2 356.8,-230 119.1,-50.9 240.6,-76.7 362.8,-76.7 239.1,0 441,82.7 605,249 140.4,143.5 210.3,354.5 210.3,632.3l0 1596.4 -596.7 0 0 -1058.9c0,-279.4 -12.9,-469.2 -39.5,-567.9 -26.5,-99.4 -72.1,-173 -136.6,-222.4 -63.8,-48.5 -143.5,-72.8 -237.6,-72.8 -122.2,0 -227.7,41 -315.8,122.2 -87.3,81.2 -148,192 -182.2,332.5 -17.4,72.8 -26.5,238.3 -26.5,497.2l0 970.1 -605.8 0 0 -3352.2z"/>
  <path id="_12" fill="#FF7F27" fill-rule="nonzero" d="M52688.6 15367.8l-1947.1 0c28.1,172.3 103.3,309.7 224.7,412.1 121.5,101.8 277.1,152.6 465.4,152.6 226.2,0 419.7,-79.7 582.2,-239.1l508.6 240.6c-126.8,180.7 -279.4,314.3 -456.2,401.6 -177.7,86.5 -387.9,129.8 -631.6,129.8 -378,0 -686.2,-119.2 -923.8,-358.3 -237.6,-238.3 -356.8,-537.4 -356.8,-896.5 0,-368.1 119.2,-674.1 356.8,-917 237.6,-243.6 535.1,-365.1 894.2,-365.1 380.3,0 690,121.5 928.4,363.6 238.3,242.9 357.5,562.5 357.5,961l-2.3 114.7zm-603.5 -473.7c-40.2,-132.1 -119.1,-239.9 -236.8,-322.6 -118.4,-82.8 -255.1,-123.8 -411.4,-123.8 -169.3,0 -317.3,46.3 -445.6,139.7 -79.7,57.7 -154.1,160.2 -222.4,306.7l1316.2 0z"/>
  <path id="_13" fill="#FF7F27" fill-rule="nonzero" d="M54973.5 13054l605.8 0 0 3352.2 -605.8 0 0 -257.3c-118.4,112.3 -237.6,192.8 -356.8,242.1 -119.1,49.4 -248.9,74.4 -387.9,74.4 -313.5,0 -583.7,-120.7 -812.2,-362.8 -228.5,-241.4 -342.4,-542 -342.4,-901.1 0,-372.7 110.9,-677.9 331.8,-916.2 220.9,-237.6 488.8,-356.8 804.6,-356.8 145.8,0 281.6,27.3 409.2,81.2 127.5,54.7 245.2,136.7 353.7,245.2l0 -1200.9zm-638.4 1430.2c-188.2,0 -344.6,66 -468.4,198.8 -124.4,132.1 -186.7,302.2 -186.7,509.4 0,208.8 63,380.3 189.8,515.4 126.8,134.4 282.4,201.9 467.6,201.9 190.5,0 349.2,-66 474.4,-198.8 126,-132.1 189,-306 189,-520.8 0,-210.2 -63,-380.3 -189,-510.9 -125.2,-129.8 -284.6,-195 -476.7,-195z"/>
  <polygon id="_14" fill="#FF7F27" fill-rule="nonzero" points="57528.6,13136 58148,13136 58148,15814.1 59063.5,15814.1 59063.5,16406.2 57528.6,16406.2 "/>
  <path id="_15" fill="#FF7F27" fill-rule="nonzero" d="M59709.5 12994.8c106.3,0 197.4,38.7 273.3,115.4 76.6,76.7 114.6,169.3 114.6,278.6 0,107.8 -38,199.6 -113.1,275.5 -75.2,75.9 -165.5,113.9 -271,113.9 -107.8,0 -199.7,-38.7 -275.6,-116.1 -76.6,-77.5 -114.6,-171.6 -114.6,-282.4 0,-106.3 38,-196.6 113.1,-271.8 75.2,-75.1 166.3,-113.1 273.3,-113.1zm-304.4 992.9l605.8 0 0 2418.5 -605.8 0 0 -2418.5z"/>
  <polygon id="_16" fill="#FF7F27" fill-rule="nonzero" points="60565,13054 61170.8,13054 61170.8,14984.4 62066.5,13987.7 62823.3,13987.7 61787.2,15142.3 62953.9,16406.2 62200.1,16406.2 61170.8,15291.1 61170.8,16406.2 60565,16406.2 "/>
  <path id="_17" fill="#FF7F27" fill-rule="nonzero" d="M65622.9 15367.8l-1947.1 0c28.1,172.3 103.3,309.7 224.7,412.1 121.5,101.8 277.1,152.6 465.4,152.6 226.2,0 419.7,-79.7 582.2,-239.1l508.6 240.6c-126.8,180.7 -279.4,314.3 -456.2,401.6 -177.7,86.5 -387.9,129.8 -631.6,129.8 -378,0 -686.2,-119.2 -923.8,-358.3 -237.6,-238.3 -356.8,-537.4 -356.8,-896.5 0,-368.1 119.2,-674.1 356.8,-917 237.6,-243.6 535.1,-365.1 894.2,-365.1 380.3,0 690,121.5 928.4,363.6 238.3,242.9 357.5,562.5 357.5,961l-2.3 114.7zm-603.5 -473.7c-40.2,-132.1 -119.1,-239.9 -236.8,-322.6 -118.4,-82.8 -255.1,-123.8 -411.4,-123.8 -169.3,0 -317.3,46.3 -445.6,139.7 -79.7,57.7 -154.1,160.2 -222.4,306.7l1316.2 0z"/>
  <polygon id="_18" fill="#FF7F27" fill-rule="nonzero" points="67465.2,13136 68055.8,13136 69464.7,15288 69464.7,13136 70084.1,13136 70084.1,16406.2 69489,16406.2 68084.7,14261 68084.7,16406.2 67465.2,16406.2 "/>
  <path id="_19" fill="#FF7F27" fill-rule="nonzero" d="M73182 15367.8l-1947.1 0c28.1,172.3 103.3,309.7 224.7,412.1 121.5,101.8 277.1,152.6 465.4,152.6 226.2,0 419.7,-79.7 582.2,-239.1l508.6 240.6c-126.8,180.7 -279.4,314.3 -456.2,401.6 -177.7,86.5 -387.9,129.8 -631.6,129.8 -378,0 -686.2,-119.2 -923.8,-358.3 -237.6,-238.3 -356.8,-537.4 -356.8,-896.5 0,-368.1 119.2,-674.1 356.8,-917 237.6,-243.6 535.1,-365.1 894.2,-365.1 380.3,0 690,121.5 928.4,363.6 238.3,242.9 357.5,562.5 357.5,961l-2.3 114.7zm-603.5 -473.7c-40.2,-132.1 -119.1,-239.9 -236.8,-322.6 -118.4,-82.8 -255.1,-123.8 -411.4,-123.8 -169.3,0 -317.3,46.3 -445.6,139.7 -79.7,57.7 -154.1,160.2 -222.4,306.7l1316.2 0z"/>
  <polygon id="_20" fill="#FF7F27" fill-rule="nonzero" points="73410.5,13987.7 73999.6,13987.7 74490,15364 75013.7,13987.7 75378.9,13987.7 75892.8,15348 76380.1,13987.7 76972.2,13987.7 76097,16406.2 75712.1,16406.2 75191.4,15027.7 74661.5,16406.2 74280.4,16406.2 "/>
  <path id="_21" fill="none" fill-rule="nonzero" stroke="#FF7F27" stroke-width="76.2" stroke-miterlimit="2.61313" d="M21182.2 16406.2l0 -3270.2 516.2 0c299.9,0 518.5,19 657.4,57.7 196.6,52.4 353,148.8 469.1,289.2 116.2,141.2 174.6,307.4 174.6,498.7 0,124.5 -26.6,237.6 -78.9,339.4 -52.4,101.7 -138.2,197.3 -256.6,286.1 198.1,93.4 343.1,209.5 435,350 91.8,139.7 137.3,305.1 137.3,496.4 0,183.7 -47.8,350.7 -142.7,501.8 -95.6,151.1 -218.6,264.2 -368.9,338.6 -150.3,75.1 -357.5,112.3 -622.4,112.3l-920.1 0zm619.4 -2678.1l0 692.3 139 0c154.8,0 270.2,-31.9 345.4,-96.4 75.1,-63.8 112.3,-151.1 112.3,-261.1 0,-102.5 -35.7,-183.7 -107,-244.5 -71.4,-59.9 -179.9,-90.3 -325.7,-90.3l-164 0zm0 1248l0 838 157.9 0c261.9,0 438.8,-32.6 529.9,-97.9 91.1,-65.3 136.6,-160.2 136.6,-284.7 0,-140.4 -53.1,-252 -160.1,-333.2 -107.1,-81.3 -284.7,-122.2 -532.9,-122.2l-131.4 0z"/>
  <path id="_22" fill="none" fill-rule="nonzero" stroke="#FF7F27" stroke-width="76.2" stroke-miterlimit="2.61313" d="M23760.2 13987.7l614.8 0 0 1162.9c0,226.3 16,383.4 47.1,471.4 31.1,88.1 81.2,156.4 150.3,205.8 69.1,48.5 154.9,72.8 255.8,72.8 101,0 187.5,-24.3 258.1,-72.1 70.6,-47.8 123,-118.4 157.1,-211.8 25.1,-69.8 38,-218.6 38,-446.3l0 -1182.7 605.8 0 0 1023.3c0,422 -33.4,710.5 -100.2,866.1 -81.3,189.8 -202,334.8 -360.6,436.5 -158.7,101 -360.6,151.8 -605,151.8 -265.7,0 -479.8,-59.2 -643.7,-177.6 -164,-118.4 -279.4,-283.2 -346.2,-495 -47.8,-146.5 -71.3,-412.9 -71.3,-799.3l0 -1005.8z"/>
  <polygon id="_23" fill="none" fill-rule="nonzero" stroke="#FF7F27" stroke-width="76.2" stroke-miterlimit="2.61313" points="26223.4,13987.7 26845.9,13987.7 27472.1,15502.1 28166,13987.7 28786.9,13987.7 27274,17289.8 26653.1,17289.8 27145,16227.8 "/>
  <path id="_24" fill="none" fill-rule="nonzero" stroke="#FF7F27" stroke-width="76.2" stroke-miterlimit="2.61313" d="M30519.2 13136l661.1 0c361.4,0 619.5,31.9 772.8,96.4 154.1,64.5 277.1,172.3 370.4,321.9 93.4,149.5 140.5,326.4 140.5,531.3 0,214.9 -51.6,394.8 -154.1,539 -103.3,145 -258.1,254.3 -465.3,327.9l772 1453.7 -680.2 0 -734.8 -1384.6 -63 0 0 1384.6 -619.4 0 0 -3270.2zm619.4 1279.8l197.4 0c200.4,0 337.8,-25.8 413.7,-78.1 75.1,-52.4 113.1,-139 113.1,-260.4 0,-71.4 -19,-133.6 -56.2,-186.8 -37.2,-53.1 -87.3,-91 -150.3,-113.8 -62.2,-23.6 -177.6,-34.9 -345.4,-34.9l-172.3 0 0 674z"/>
  <path id="_25" fill="none" fill-rule="nonzero" stroke="#FF7F27" stroke-width="76.2" stroke-miterlimit="2.61313" d="M35472.3 15367.8l-1947.1 0c28.1,172.3 103.3,309.7 224.7,412.1 121.5,101.8 277.1,152.6 465.4,152.6 226.2,0 419.7,-79.7 582.2,-239.1l508.6 240.6c-126.8,180.7 -279.4,314.3 -456.2,401.6 -177.7,86.5 -387.9,129.8 -631.6,129.8 -378,0 -686.2,-119.2 -923.8,-358.3 -237.6,-238.3 -356.8,-537.4 -356.8,-896.5 0,-368.1 119.2,-674.1 356.8,-917 237.6,-243.6 535.1,-365.1 894.2,-365.1 380.3,0 690,121.5 928.4,363.6 238.3,242.9 357.5,562.5 357.5,961l-2.3 114.7zm-603.5 -473.7c-40.2,-132.1 -119.1,-239.9 -236.8,-322.6 -118.4,-82.8 -255.1,-123.8 -411.4,-123.8 -169.3,0 -317.3,46.3 -445.6,139.7 -79.7,57.7 -154.1,160.2 -222.4,306.7l1316.2 0z"/>
  <path id="_26" fill="none" fill-rule="nonzero" stroke="#FF7F27" stroke-width="76.2" stroke-miterlimit="2.61313" d="M35680.3 13987.7l214.1 0c1.5,-316.5 6.8,-503.3 15.2,-561 16.7,-132.8 72.1,-238.3 167,-315.8 95.6,-77.4 230,-116.1 403.8,-116.1 126,0 267.2,28.9 425.1,86.5l0 461.6c-87.3,-25.1 -158.6,-38 -214.8,-38 -70.6,0 -122.2,14.4 -154.9,44 -23.5,22.1 -35.7,68.4 -35.7,137.4l-2.2 301.4 384.8 0 0 514.7 -382.6 0 0 1903.8 -605.7 0 0 -1903.8 -214.1 0 0 -514.7z"/>
  <path id="_27" fill="none" fill-rule="nonzero" stroke="#FF7F27" stroke-width="76.2" stroke-miterlimit="2.61313" d="M37241.8 13987.7l614.8 0 0 1162.9c0,226.3 16,383.4 47.1,471.4 31.1,88.1 81.2,156.4 150.3,205.8 69.1,48.5 154.9,72.8 255.8,72.8 101,0 187.5,-24.3 258.1,-72.1 70.6,-47.8 123,-118.4 157.1,-211.8 25.1,-69.8 38,-218.6 38,-446.3l0 -1182.7 605.8 0 0 1023.3c0,422 -33.4,710.5 -100.2,866.1 -81.3,189.8 -202,334.8 -360.6,436.5 -158.7,101 -360.6,151.8 -605,151.8 -265.7,0 -479.8,-59.2 -643.7,-177.6 -164,-118.4 -279.4,-283.2 -346.2,-495 -47.8,-146.5 -71.3,-412.9 -71.3,-799.3l0 -1005.8z"/>
  <path id="_28" fill="none" fill-rule="nonzero" stroke="#FF7F27" stroke-width="76.2" stroke-miterlimit="2.61313" d="M39834.1 13987.7l523.7 0 0 307.4c56.2,-119.9 130.6,-211 223.2,-273.2 93.4,-62.3 195.1,-93.4 305.2,-93.4 78.2,0 160.1,20.5 245.9,62.2l-188.2 523.8c-70.6,-35.7 -129.1,-53.1 -174.6,-53.1 -92.6,0 -171.6,57.7 -235.3,173.1 -64.6,115.3 -96.4,341.6 -96.4,678.6l2.2 117.7 0 975.4 -605.7 0 0 -2418.5z"/>
  <path id="_29" fill="none" fill-rule="nonzero" stroke="#FF7F27" stroke-width="76.2" stroke-miterlimit="2.61313" d="M42037.7 13054l0 1200.9c109.3,-108.5 227.7,-190.5 355.3,-245.2 127.5,-53.9 264.1,-81.2 409.1,-81.2 315.1,0 583,119.2 803.9,356.8 220.9,238.3 331,543.5 331,916.2 0,359.1 -113.9,659.7 -342.4,901.1 -227.7,242.1 -497.9,362.8 -810.7,362.8 -138.9,0 -268.7,-25 -388.6,-74.4 -120,-49.3 -239.2,-129.8 -357.6,-242.1l0 257.3 -605.7 0 0 -3352.2 605.7 0zm636.1 1430.2c-190.5,0 -349.1,65.2 -474.4,195 -126,130.6 -189,300.7 -189,510.9 0,214.8 63,388.7 189,520.8 125.3,132.8 283.9,198.8 474.4,198.8 185.3,0 340.9,-67.5 467.7,-201.9 126.7,-135.1 189.7,-306.6 189.7,-515.4 0,-207.2 -62.2,-377.3 -186.7,-509.4 -123.7,-132.8 -280.9,-198.8 -470.7,-198.8z"/>
  <path id="_30" fill="none" fill-rule="nonzero" stroke="#FF7F27" stroke-width="76.2" stroke-miterlimit="2.61313" d="M44679.4 12994.8c106.3,0 197.4,38.7 273.3,115.4 76.6,76.7 114.6,169.3 114.6,278.6 0,107.8 -38,199.6 -113.1,275.5 -75.2,75.9 -165.5,113.9 -271,113.9 -107.8,0 -199.7,-38.7 -275.6,-116.1 -76.6,-77.5 -114.6,-171.6 -114.6,-282.4 0,-106.3 38,-196.6 113.1,-271.8 75.2,-75.1 166.3,-113.1 273.3,-113.1zm-304.4 992.9l605.8 0 0 2418.5 -605.8 0 0 -2418.5z"/>
  <path id="_31" fill="none" fill-rule="nonzero" stroke="#FF7F27" stroke-width="76.2" stroke-miterlimit="2.61313" d="M47010.6 14330.1l-375 377.2c-151.8,-151.8 -290,-227.7 -414.5,-227.7 -67.5,0 -120.7,14.4 -159.4,43.3 -38.7,28.8 -57.7,64.5 -57.7,107 0,32.6 12.2,62.3 36.5,89.6 24.3,27.3 85,64.5 181.4,112.3l221.7 110.9c233.8,114.6 394.7,232.2 482,351.4 87.3,120 130.5,259.6 130.5,420.6 0,214 -78.9,393.2 -236.8,535.9 -157.9,143.5 -369.7,214.8 -635.4,214.8 -352.2,0 -634.6,-137.4 -844.8,-412.9l374.2 -406.9c71.4,82.7 154.9,150.3 251.3,201.1 95.6,50.9 180.6,76.7 255,76.7 79.7,0 145,-19 193.6,-57.7 49.3,-38.7 73.6,-82.7 73.6,-132.8 0,-93.4 -88,-184.5 -264.9,-272.5l-204.2 -102.5c-391.7,-196.6 -587.5,-442.6 -587.5,-737.9 0,-190.5 73.6,-353.7 220.9,-488.8 147.2,-135.1 335.5,-202.7 564.7,-202.7 157.2,0 304.4,34.9 443.3,104 138.2,69.1 255.1,168.5 351.5,297.6z"/>
  <path id="_32" fill="none" fill-rule="nonzero" stroke="#FF7F27" stroke-width="76.2" stroke-miterlimit="2.61313" d="M47538.9 13054l605.8 0 0 1181.2c118.4,-102.5 236.8,-179.2 356.8,-230 119.1,-50.9 240.6,-76.7 362.8,-76.7 239.1,0 441,82.7 605,249 140.4,143.5 210.3,354.5 210.3,632.3l0 1596.4 -596.7 0 0 -1058.9c0,-279.4 -12.9,-469.2 -39.5,-567.9 -26.5,-99.4 -72.1,-173 -136.6,-222.4 -63.8,-48.5 -143.5,-72.8 -237.6,-72.8 -122.2,0 -227.7,41 -315.8,122.2 -87.3,81.2 -148,192 -182.2,332.5 -17.4,72.8 -26.5,238.3 -26.5,497.2l0 970.1 -605.8 0 0 -3352.2z"/>
  <path id="_33" fill="none" fill-rule="nonzero" stroke="#FF7F27" stroke-width="76.2" stroke-miterlimit="2.61313" d="M52688.6 15367.8l-1947.1 0c28.1,172.3 103.3,309.7 224.7,412.1 121.5,101.8 277.1,152.6 465.4,152.6 226.2,0 419.7,-79.7 582.2,-239.1l508.6 240.6c-126.8,180.7 -279.4,314.3 -456.2,401.6 -177.7,86.5 -387.9,129.8 -631.6,129.8 -378,0 -686.2,-119.2 -923.8,-358.3 -237.6,-238.3 -356.8,-537.4 -356.8,-896.5 0,-368.1 119.2,-674.1 356.8,-917 237.6,-243.6 535.1,-365.1 894.2,-365.1 380.3,0 690,121.5 928.4,363.6 238.3,242.9 357.5,562.5 357.5,961l-2.3 114.7zm-603.5 -473.7c-40.2,-132.1 -119.1,-239.9 -236.8,-322.6 -118.4,-82.8 -255.1,-123.8 -411.4,-123.8 -169.3,0 -317.3,46.3 -445.6,139.7 -79.7,57.7 -154.1,160.2 -222.4,306.7l1316.2 0z"/>
  <path id="_34" fill="none" fill-rule="nonzero" stroke="#FF7F27" stroke-width="76.2" stroke-miterlimit="2.61313" d="M54973.5 13054l605.8 0 0 3352.2 -605.8 0 0 -257.3c-118.4,112.3 -237.6,192.8 -356.8,242.1 -119.1,49.4 -248.9,74.4 -387.9,74.4 -313.5,0 -583.7,-120.7 -812.2,-362.8 -228.5,-241.4 -342.4,-542 -342.4,-901.1 0,-372.7 110.9,-677.9 331.8,-916.2 220.9,-237.6 488.8,-356.8 804.6,-356.8 145.8,0 281.6,27.3 409.2,81.2 127.5,54.7 245.2,136.7 353.7,245.2l0 -1200.9zm-638.4 1430.2c-188.2,0 -344.6,66 -468.4,198.8 -124.4,132.1 -186.7,302.2 -186.7,509.4 0,208.8 63,380.3 189.8,515.4 126.8,134.4 282.4,201.9 467.6,201.9 190.5,0 349.2,-66 474.4,-198.8 126,-132.1 189,-306 189,-520.8 0,-210.2 -63,-380.3 -189,-510.9 -125.2,-129.8 -284.6,-195 -476.7,-195z"/>
  <polygon id="_35" fill="none" fill-rule="nonzero" stroke="#FF7F27" stroke-width="76.2" stroke-miterlimit="2.61313" points="57528.6,13136 58148,13136 58148,15814.1 59063.5,15814.1 59063.5,16406.2 57528.6,16406.2 "/>
  <path id="_36" fill="none" fill-rule="nonzero" stroke="#FF7F27" stroke-width="76.2" stroke-miterlimit="2.61313" d="M59709.5 12994.8c106.3,0 197.4,38.7 273.3,115.4 76.6,76.7 114.6,169.3 114.6,278.6 0,107.8 -38,199.6 -113.1,275.5 -75.2,75.9 -165.5,113.9 -271,113.9 -107.8,0 -199.7,-38.7 -275.6,-116.1 -76.6,-77.5 -114.6,-171.6 -114.6,-282.4 0,-106.3 38,-196.6 113.1,-271.8 75.2,-75.1 166.3,-113.1 273.3,-113.1zm-304.4 992.9l605.8 0 0 2418.5 -605.8 0 0 -2418.5z"/>
  <polygon id="_37" fill="none" fill-rule="nonzero" stroke="#FF7F27" stroke-width="76.2" stroke-miterlimit="2.61313" points="60565,13054 61170.8,13054 61170.8,14984.4 62066.5,13987.7 62823.3,13987.7 61787.2,15142.3 62953.9,16406.2 62200.1,16406.2 61170.8,15291.1 61170.8,16406.2 60565,16406.2 "/>
  <path id="_38" fill="none" fill-rule="nonzero" stroke="#FF7F27" stroke-width="76.2" stroke-miterlimit="2.61313" d="M65622.9 15367.8l-1947.1 0c28.1,172.3 103.3,309.7 224.7,412.1 121.5,101.8 277.1,152.6 465.4,152.6 226.2,0 419.7,-79.7 582.2,-239.1l508.6 240.6c-126.8,180.7 -279.4,314.3 -456.2,401.6 -177.7,86.5 -387.9,129.8 -631.6,129.8 -378,0 -686.2,-119.2 -923.8,-358.3 -237.6,-238.3 -356.8,-537.4 -356.8,-896.5 0,-368.1 119.2,-674.1 356.8,-917 237.6,-243.6 535.1,-365.1 894.2,-365.1 380.3,0 690,121.5 928.4,363.6 238.3,242.9 357.5,562.5 357.5,961l-2.3 114.7zm-603.5 -473.7c-40.2,-132.1 -119.1,-239.9 -236.8,-322.6 -118.4,-82.8 -255.1,-123.8 -411.4,-123.8 -169.3,0 -317.3,46.3 -445.6,139.7 -79.7,57.7 -154.1,160.2 -222.4,306.7l1316.2 0z"/>
  <polygon id="_39" fill="none" fill-rule="nonzero" stroke="#FF7F27" stroke-width="76.2" stroke-miterlimit="2.61313" points="67465.2,13136 68055.8,13136 69464.7,15288 69464.7,13136 70084.1,13136 70084.1,16406.2 69489,16406.2 68084.7,14261 68084.7,16406.2 67465.2,16406.2 "/>
  <path id="_40" fill="none" fill-rule="nonzero" stroke="#FF7F27" stroke-width="76.2" stroke-miterlimit="2.61313" d="M73182 15367.8l-1947.1 0c28.1,172.3 103.3,309.7 224.7,412.1 121.5,101.8 277.1,152.6 465.4,152.6 226.2,0 419.7,-79.7 582.2,-239.1l508.6 240.6c-126.8,180.7 -279.4,314.3 -456.2,401.6 -177.7,86.5 -387.9,129.8 -631.6,129.8 -378,0 -686.2,-119.2 -923.8,-358.3 -237.6,-238.3 -356.8,-537.4 -356.8,-896.5 0,-368.1 119.2,-674.1 356.8,-917 237.6,-243.6 535.1,-365.1 894.2,-365.1 380.3,0 690,121.5 928.4,363.6 238.3,242.9 357.5,562.5 357.5,961l-2.3 114.7zm-603.5 -473.7c-40.2,-132.1 -119.1,-239.9 -236.8,-322.6 -118.4,-82.8 -255.1,-123.8 -411.4,-123.8 -169.3,0 -317.3,46.3 -445.6,139.7 -79.7,57.7 -154.1,160.2 -222.4,306.7l1316.2 0z"/>
  <polygon id="_41" fill="none" fill-rule="nonzero" stroke="#FF7F27" stroke-width="76.2" stroke-miterlimit="2.61313" points="73410.5,13987.7 73999.6,13987.7 74490,15364 75013.7,13987.7 75378.9,13987.7 75892.8,15348 76380.1,13987.7 76972.2,13987.7 76097,16406.2 75712.1,16406.2 75191.4,15027.7 74661.5,16406.2 74280.4,16406.2 "/>
  <g id="_1775612536576">
   <g>
    <path fill="#000066" fill-rule="nonzero" stroke="#000066" stroke-width="282.2" stroke-miterlimit="2.61313" d="M33264.6 10014.7c-1680.2,0 -3051.1,-1368 -3051.1,-3051.1 0,-1683.1 1370.9,-3051.1 3051.1,-3051.1 1680.2,0 3051.1,1368 3051.1,3051.1 0,1683.1 -1368,3051.1 -3051.1,3051.1zm0 -5676.5c-1447.5,0 -2625.4,1177.9 -2625.4,2625.4 0,1447.5 1177.9,2625.4 2625.4,2625.4 1447.5,0 2625.4,-1177.9 2625.4,-2625.4 0,-1447.5 -1177.9,-2625.4 -2625.4,-2625.4z" data-original="#000000"/>
    <path fill="#000066" fill-rule="nonzero" stroke="#000066" stroke-width="282.2" stroke-miterlimit="2.61313" d="M33273.1 9021.3c-610.2,0 -1183.5,-298 -1532.6,-800.4 -24.9,-35.4 -38.3,-77.7 -38.3,-121 0,-69.7 34.5,-134.9 92.2,-174.2 96.5,-68.1 229.9,-42.5 295.2,54 269.6,386 712.4,618.7 1183.5,618.7 471.2,0 913.9,-229.9 1183.6,-618.7 68.1,-96.5 198.6,-119.2 295.1,-54 96.5,68.2 119.3,198.7 54,295.2 -348.8,501 -921.4,800.4 -1532.1,800.4 0,0 -0.6,0 -0.6,0l0 0z" data-original="#000000"/>
   </g>
  </g>
  <g id="_1775612536960">
   <g>
    <g>
     <path fill="#FF7F27" fill-rule="nonzero" stroke="#FF7F27" stroke-width="176.4" stroke-miterlimit="2.61313" d="M80359 14592.4c-116,-115.9 -289.9,-115.9 -405.9,0 -116,116 -116,290 0,405.9l869.7 869.7c58,58 116,87 203,87 86.9,0 144.9,-29 202.9,-87l2029.3 -2319.2c87,-145 87,-318.9 -57.9,-405.9 -116,-87 -289.9,-87 -376.9,29l-1797.4 2058.3 -666.8 -637.8z" data-original="#02bc7d"/>
     <path fill="#FF7F27" fill-rule="nonzero" stroke="#FF7F27" stroke-width="176.4" stroke-miterlimit="2.61313" d="M83634.9 14505.5c-173.9,0 -289.9,115.9 -289.9,289.9 0,1275.6 -1043.6,2319.3 -2319.2,2319.3 -1275.6,0 -2319.3,-1043.7 -2319.3,-2319.3 0,-608.8 231.9,-1188.6 666.8,-1623.5 434.8,-463.9 1014.7,-695.8 1652.5,-695.8 173.9,0 376.8,29 550.8,58 144.9,58 318.9,-29 376.9,-202.9 57.9,-174 -58,-289.9 -203,-347.9l-29 0c-231.9,-58 -463.8,-87 -695.7,-87 -1594.5,0 -2899.1,1304.6 -2899.1,2928.1 0,753.7 318.9,1507.5 840.7,2029.3 550.8,550.9 1275.6,840.8 2029.4,840.8 1594.5,0 2899,-1304.6 2899,-2899.1 29,-174 -115.9,-289.9 -260.9,-289.9z" data-original="#02bc7d"/>
    </g>
   </g>
  </g>
 </g>
</svg>
